<svg width="16" height="16" viewBox="0 0 16 16" fill="none" xmlns="http://www.w3.org/2000/svg">
<path fill-rule="evenodd" clip-rule="evenodd" d="M2.40078 0.799988H13.6008C14.4808 0.799988 15.2008 1.51999 15.2008 2.39999V13.6C15.2008 14.48 14.4808 15.2 13.6008 15.2H2.40078C1.51278 15.2 0.800781 14.48 0.800781 13.6V2.39999C0.800781 1.51999 1.51278 0.799988 2.40078 0.799988ZM13.6008 13.6V2.39999H2.40078V13.6H13.6008ZM8.00078 7.99999C6.68078 7.99999 5.60078 6.91999 5.60078 5.59999C5.60078 4.27999 6.68078 3.19999 8.00078 3.19999C9.32078 3.19999 10.4008 4.27999 10.4008 5.59999C10.4008 6.91999 9.32078 7.99999 8.00078 7.99999ZM7.20078 5.59999C7.20078 5.15999 7.56078 4.79999 8.00078 4.79999C8.44078 4.79999 8.80078 5.15999 8.80078 5.59999C8.80078 6.03999 8.44078 6.39999 8.00078 6.39999C7.56078 6.39999 7.20078 6.03999 7.20078 5.59999ZM12.8008 12.8001H3.20078V11.5761C3.20078 9.5761 6.37678 8.7121 8.00078 8.7121C9.62478 8.7121 12.8008 9.5761 12.8008 11.5761V12.8001ZM10.9528 11.1999H5.04883C5.59283 10.7519 6.95283 10.3039 8.00083 10.3039C9.04883 10.3039 10.4008 10.7519 10.9528 11.1999Z" fill="#1F659D"/>
</svg>
