<svg width="10" height="16" viewBox="0 0 10 16" fill="none" xmlns="http://www.w3.org/2000/svg">
<path d="M8.98892 14.0624C9.25271 14.3053 9.27212 14.7188 9.03229 14.986C8.8109 15.2326 8.446 15.2683 8.1837 15.0813L8.1204 15.0299L1.01147 8.48374C0.749891 8.24287 0.731207 7.83877 0.955415 7.57459L1.01147 7.51624L8.1204 0.970044C8.38419 0.727138 8.79246 0.746805 9.03229 1.01397C9.25367 1.26059 9.25416 1.63188 9.04545 1.8786L8.98892 1.93754L2.66777 7.75811C2.53587 7.87956 2.52616 8.08631 2.64608 8.21989C2.65296 8.22756 2.6602 8.23489 2.66777 8.24187L8.98892 14.0624Z" fill="#0C1024"/>
</svg>
