<svg width="18" height="18" viewBox="0 0 18 18" fill="none" xmlns="http://www.w3.org/2000/svg">
<path d="M17.5533 0.436346C17.5546 0.437642 17.556 0.438942 17.5573 0.440246C17.88 0.763105 17.8813 1.28562 17.5603 1.61017L10.2519 8.99995L17.5603 16.3897C17.8584 16.6911 17.8785 17.1632 17.6215 17.4876L17.5573 17.5597C17.556 17.561 17.5546 17.5623 17.5533 17.5636C17.2313 17.8814 16.7122 17.8783 16.394 17.5566L8.9999 10.0819L1.60637 17.5566C1.28209 17.8801 0.763032 17.8797 0.443128 17.5597C0.120421 17.2368 0.119047 16.7143 0.440051 16.3897L7.7485 8.99995L0.440051 1.61017C0.119047 1.28562 0.120421 0.763105 0.443128 0.440246C0.763032 0.120192 1.28209 0.119804 1.60247 0.43938L1.60637 0.4433L8.9999 7.91801L16.394 0.4433C16.7122 0.12157 17.2313 0.118457 17.5533 0.436346Z" fill="#1F659D"/>
</svg>
