<svg width="19" height="13" viewBox="0 0 19 13" fill="none" xmlns="http://www.w3.org/2000/svg">
<path d="M9.33463 5.77778C9.73351 5.77778 10.0569 6.10113 10.0569 6.5L10.0562 10.5351L10.877 9.71407C11.159 9.43203 11.6163 9.43203 11.8983 9.71407C12.1804 9.99612 12.1804 10.4534 11.8983 10.7354L9.85076 12.783C9.71966 12.9169 9.53685 13 9.33463 13C9.27528 13 9.2176 12.9928 9.1628 12.9788C9.02164 12.9541 8.88642 12.8872 8.77739 12.7782L6.73463 10.7354C6.45259 10.4534 6.45259 9.99612 6.73463 9.71407C7.01668 9.43203 7.47397 9.43203 7.75601 9.71407L8.61177 10.5704L8.61241 6.5C8.61241 6.10113 8.93576 5.77778 9.33463 5.77778ZM8.61241 0C10.7507 0 12.6176 1.16153 13.6167 2.88805L13.668 2.88889C16.0612 2.88889 18.0013 4.82899 18.0013 7.22222C18.0013 9.56106 16.1484 11.4671 13.8304 11.5526L13.668 11.5556H12.8721C12.5363 11.5182 12.2678 11.2534 12.2285 10.9184L12.2235 10.8333C12.2235 10.463 12.5023 10.1577 12.8615 10.116L12.9457 10.1111L13.6414 10.1114L13.7772 10.1091C15.3255 10.052 16.5569 8.77721 16.5569 7.22222C16.5569 5.67508 15.3407 4.412 13.7906 4.33669L12.7759 4.31894L12.3665 3.61153C11.5962 2.28032 10.1779 1.44444 8.61241 1.44444C6.27357 1.44444 4.3675 3.29736 4.28185 5.59111L4.27885 5.75183L4.30097 6.98359L3.19548 7.26744C2.56363 7.42967 2.11241 8.00356 2.11241 8.66667C2.11241 9.42815 2.70166 10.052 3.44905 10.1071L3.55684 10.1111H5.79647C6.13294 10.1484 6.40146 10.4133 6.44078 10.7482L6.44575 10.8333C6.44575 11.2037 6.16694 11.509 5.80775 11.5507L5.72352 11.5556H3.55686C1.96137 11.5556 0.667969 10.2622 0.667969 8.66667C0.667969 7.31997 1.58944 6.1885 2.83626 5.86837L2.83464 5.77778C2.83464 2.5868 5.42143 0 8.61241 0Z" fill="#96A2C1"/>
</svg>
