<svg width="13" height="13" viewBox="0 0 13 13" fill="none" xmlns="http://www.w3.org/2000/svg">
<path fill-rule="evenodd" clip-rule="evenodd" d="M4.01818 13H1.89091C0.827273 13 0 12.1727 0 11.1091V1.89091C0 0.827274 0.827273 0 1.89091 0H8.09545C9.15909 0 9.98636 0.827274 9.98636 1.89091V3.36818C9.98636 3.66364 9.75 3.9 9.45455 3.9C9.15909 3.9 8.92273 3.66364 8.92273 3.36818V1.89091C8.92273 1.41818 8.50909 1.00455 8.03636 1.00455H1.89091C1.41818 1.00455 1.00455 1.41818 1.00455 1.89091V11.1091C1.00455 11.5818 1.41818 11.9955 1.89091 11.9955H4.01818C4.31364 11.9955 4.55 12.2318 4.55 12.5273C4.55 12.7636 4.31364 13 4.01818 13ZM6.08655 12.0545C5.96836 12.0545 5.85018 11.9955 5.732 11.9364C5.61382 11.8182 5.55473 11.6409 5.55473 11.4636L5.85018 9.75C5.85018 9.63182 5.90927 9.51364 6.02746 9.45455L10.6956 5.14091C10.8729 4.96364 11.2275 4.96364 11.4047 5.14091L12.8229 6.44091C12.9411 6.55909 13.0002 6.67727 13.0002 6.79545C13.0002 6.91364 12.9411 7.09091 12.8229 7.15L8.09564 11.5227C8.03655 11.5818 7.91837 11.6409 7.85927 11.6409L6.20473 11.9955L6.20472 11.9955C6.17075 12.0294 6.15631 12.0439 6.13894 12.05C6.1261 12.0545 6.11166 12.0545 6.08655 12.0545ZM6.91382 10.1045L6.79564 10.8727L7.56382 10.6955L11.7593 6.79545L11.1093 6.20455L6.91382 10.1045ZM2.65881 3.60454H7.32699C7.62245 3.60454 7.85881 3.42727 7.85881 3.13181C7.85881 2.83636 7.62245 2.59999 7.32699 2.59999H2.65881C2.36336 2.59999 2.12699 2.83636 2.12699 3.13181C2.12699 3.42727 2.36336 3.60454 2.65881 3.60454ZM7.32699 5.96818H2.65881C2.36336 5.96818 2.12699 5.73181 2.12699 5.43636C2.12699 5.1409 2.36336 4.90454 2.65881 4.90454H7.32699C7.62245 4.90454 7.85881 5.1409 7.85881 5.43636C7.85881 5.73181 7.62245 5.96818 7.32699 5.96818ZM2.65881 8.27272H5.02245C5.25881 8.27272 5.49518 8.03636 5.49518 7.74091C5.49518 7.44545 5.25881 7.20909 4.96336 7.20909H2.65881C2.36336 7.20909 2.12699 7.44545 2.12699 7.74091C2.12699 8.03636 2.36336 8.27272 2.65881 8.27272Z" fill="#96A2C1"/>
</svg>
