<svg width="16" height="16" viewBox="0 0 16 16" fill="none" xmlns="http://www.w3.org/2000/svg">
<path d="M12.9959 1.33224L14.6671 3.00342C15.35 3.68388 15.3773 4.77209 14.7502 5.48628L14.6684 5.57355L12.7424 7.49417L12.7449 7.49704L11.8878 8.35417L11.8842 8.35057L5.73173 14.4902C5.27722 14.9438 4.6613 15.1986 4.01915 15.1986H2.01294C1.34349 15.1986 0.800781 14.6559 0.800781 13.9864V11.9536C0.800781 11.3103 1.05642 10.6934 1.51141 10.2387L10.4241 1.33182C11.1347 0.622567 12.2856 0.622754 12.9959 1.33224ZM8.50105 4.96742L2.36826 11.0962C2.14076 11.3235 2.01294 11.6319 2.01294 11.9536V13.6834C2.01294 13.8507 2.14862 13.9864 2.31599 13.9864H4.01915C4.34023 13.9864 4.64819 13.859 4.87544 13.6322L11.0242 7.49054L8.50105 4.96742ZM11.281 2.18923L9.35865 4.11042L11.8824 6.63414L13.8655 4.6544C14.0461 4.41715 14.0278 4.07761 13.81 3.86055L12.1388 2.18937L12.0821 2.13941C11.8439 1.95437 11.4995 1.9711 11.281 2.18923Z" fill="#1F659D"/>
</svg>
