<svg width="24" height="24" viewBox="0 0 24 24" fill="none" xmlns="http://www.w3.org/2000/svg">
<path fill-rule="evenodd" clip-rule="evenodd" d="M19.2008 12C19.2008 15.9765 15.9772 19.2 12.0008 19.2C8.02433 19.2 4.80078 15.9765 4.80078 12C4.80078 8.02355 8.02433 4.8 12.0008 4.8C15.9772 4.8 19.2008 8.02355 19.2008 12ZM18.0008 12C18.0008 15.3137 15.3145 18 12.0008 18C8.68707 18 6.00078 15.3137 6.00078 12C6.00078 8.68629 8.68707 6 12.0008 6C15.3145 6 18.0008 8.68629 18.0008 12ZM12.0008 9.6C12.3322 9.6 12.6008 9.33137 12.6008 9C12.6008 8.66863 12.3322 8.4 12.0008 8.4C11.6694 8.4 11.4008 8.66863 11.4008 9C11.4008 9.33137 11.6694 9.6 12.0008 9.6ZM11.4008 14.4V11.4H10.8008V10.2H11.4008H12.0008H12.6008V14.4H13.8008V15.6H10.2008V14.4H11.4008Z" fill="#1F659D"/>
</svg>
