<svg width="16" height="14" viewBox="0 0 16 14" fill="none" xmlns="http://www.w3.org/2000/svg">
<path d="M15.1685 9.84111C15.1898 9.89046 15.2008 9.94365 15.2008 9.99741C15.2008 10.3615 14.9843 10.6907 14.6499 10.835L8.47631 13.4988C8.17282 13.6298 7.82874 13.6298 7.52525 13.4988L1.35166 10.835C1.01731 10.6907 0.800781 10.3615 0.800781 9.99741C0.800781 9.77957 0.977421 9.60298 1.19532 9.60298C1.24909 9.60298 1.30229 9.61397 1.35166 9.63527L7.52525 12.2991C7.82874 12.4301 8.17282 12.4301 8.47631 12.2991L14.6499 9.63527C14.85 9.54895 15.0821 9.6411 15.1685 9.84111ZM15.1685 6.24208C15.1898 6.29143 15.2008 6.34462 15.2008 6.39838C15.2008 6.76244 14.9843 7.09165 14.6499 7.23592L8.47631 9.89979C8.17282 10.0307 7.82874 10.0307 7.52525 9.89979L1.35166 7.23592C1.01731 7.09165 0.800781 6.76244 0.800781 6.39838C0.800781 6.18054 0.977421 6.00395 1.19532 6.00395C1.24909 6.00395 1.30229 6.01494 1.35166 6.03624L7.52525 8.70011C7.82874 8.83106 8.17282 8.83106 8.47631 8.70011L14.6499 6.03624C14.85 5.94992 15.0821 6.04207 15.1685 6.24208ZM8.46293 0.489587L15.1047 3.26083C15.1812 3.29273 15.2173 3.38055 15.1854 3.45698C15.1702 3.49342 15.1412 3.52239 15.1048 3.5376L8.46315 6.3103C8.16728 6.43381 7.83428 6.43382 7.5384 6.31032L0.895703 3.53761C0.819256 3.5057 0.783158 3.41787 0.815077 3.34145C0.830295 3.30501 0.859277 3.27604 0.895731 3.26083L7.53862 0.489562C7.83437 0.366182 8.16719 0.366191 8.46293 0.489587ZM7.79449 1.62664L3.34023 3.25836C3.26244 3.28686 3.22249 3.373 3.25099 3.45076C3.26617 3.49217 3.29881 3.52481 3.34024 3.53998L7.79453 5.17129C7.92769 5.22005 8.07382 5.22009 8.207 5.1714L12.669 3.54C12.7468 3.51156 12.7868 3.42544 12.7584 3.34766C12.7432 3.30619 12.7105 3.27351 12.669 3.25833L8.20705 1.62653C8.07384 1.57782 7.92767 1.57786 7.79449 1.62664Z" fill="#1F659D"/>
</svg>
