<svg width="26" height="26" viewBox="0 0 26 26" fill="none" xmlns="http://www.w3.org/2000/svg">
<path d="M13 1C13 0.447715 13.4484 -0.00400126 13.999 0.0384375C16.2182 0.209471 18.3625 0.948121 20.2224 2.1909C22.3603 3.61935 24.0265 5.64968 25.0104 8.02512C25.9944 10.4006 26.2518 13.0144 25.7502 15.5362C25.2486 18.0579 24.0105 20.3743 22.1924 22.1924C20.3743 24.0105 18.0579 25.2486 15.5362 25.7502C13.0144 26.2518 10.4006 25.9944 8.02512 25.0104C5.64968 24.0265 3.61935 22.3603 2.19089 20.2224C0.948121 18.3625 0.209471 16.2182 0.0384374 13.999C-0.00400129 13.4484 0.447715 13 1 13H2.64C3.19228 13 3.63447 13.449 3.69336 13.9981C3.85405 15.4964 4.3748 16.939 5.21744 18.2001C6.24593 19.7394 7.70777 20.9391 9.41808 21.6475C11.1284 22.3559 13.0104 22.5413 14.826 22.1802C16.6417 21.819 18.3095 20.9275 19.6185 19.6185C20.9275 18.3095 21.819 16.6417 22.1802 14.826C22.5413 13.0104 22.3559 11.1284 21.6475 9.41808C20.9391 7.70777 19.7394 6.24593 18.2001 5.21744C16.939 4.3748 15.4964 3.85405 13.9981 3.69336C13.449 3.63447 13 3.19228 13 2.64V1Z" fill="#1F659D"/>
</svg>
