<svg width="20" height="20" viewBox="0 0 20 20" fill="none" xmlns="http://www.w3.org/2000/svg">
<path fill-rule="evenodd" clip-rule="evenodd" d="M2.53372 0.399994H17.4671C18.6404 0.399994 19.6004 1.35999 19.6004 2.53333V17.4667C19.6004 18.64 18.6404 19.6 17.4671 19.6H2.53372C1.34972 19.6 0.400391 18.64 0.400391 17.4667V2.53333C0.400391 1.35999 1.34972 0.399994 2.53372 0.399994ZM17.4671 17.4667V2.53333H2.53372V17.4667H17.4671ZM10.0004 9.99999C8.24039 9.99999 6.80039 8.55999 6.80039 6.79999C6.80039 5.03999 8.24039 3.59999 10.0004 3.59999C11.7604 3.59999 13.2004 5.03999 13.2004 6.79999C13.2004 8.55999 11.7604 9.99999 10.0004 9.99999ZM8.93372 6.79999C8.93372 6.21333 9.41372 5.73333 10.0004 5.73333C10.5871 5.73333 11.0671 6.21333 11.0671 6.79999C11.0671 7.38666 10.5871 7.86666 10.0004 7.86666C9.41372 7.86666 8.93372 7.38666 8.93372 6.79999ZM3.60039 16.4001V14.7681C3.60039 12.1015 7.83506 10.9495 10.0004 10.9495C12.1657 10.9495 16.4004 12.1015 16.4004 14.7681V16.4001H3.60039ZM13.9365 14.2665H6.06445C6.78979 13.6692 8.60312 13.0719 10.0005 13.0719C11.3978 13.0719 13.2005 13.6692 13.9365 14.2665Z" fill="#4B83B0"/>
</svg>
