<svg width="14" height="14" viewBox="0 0 14 14" fill="none" xmlns="http://www.w3.org/2000/svg">
<path d="M13.829 6.58744L11.7668 4.52509C11.539 4.2973 11.1696 4.2973 10.9418 4.52509C10.7141 4.75288 10.7141 5.12227 10.9418 5.35006L12.0085 6.41667H7.58334V1.9917L8.64981 3.05817C8.8776 3.28596 9.24699 3.28596 9.47478 3.05817C9.70257 2.83038 9.70257 2.46098 9.47478 2.2332L7.41242 0.170842C7.18463 -0.0569473 6.81524 -0.0569473 6.58745 0.170842L4.52509 2.23334C4.2973 2.46113 4.2973 2.83052 4.52509 3.05831C4.75288 3.2861 5.12228 3.2861 5.35007 3.05831L6.41668 1.9917V6.41667H1.9917L3.05817 5.3502C3.28596 5.12242 3.28596 4.75302 3.05817 4.52523C2.83038 4.29744 2.46099 4.29744 2.2332 4.52523L0.170842 6.58744C-0.0569474 6.81523 -0.0569474 7.18462 0.170842 7.41241L2.23334 9.47491C2.46113 9.7027 2.83053 9.7027 3.05832 9.47491C3.28611 9.24712 3.28611 8.87773 3.05832 8.64994L1.9917 7.58333H6.41668V12.0084L5.35021 10.9418C5.12242 10.714 4.75303 10.714 4.52524 10.9418C4.29745 11.1696 4.29745 11.539 4.52524 11.7668L6.5876 13.8292C6.81539 14.0569 7.18478 14.0569 7.41257 13.8292L9.47507 11.7668C9.70286 11.539 9.70286 11.1696 9.47507 10.9418C9.24728 10.714 8.87789 10.714 8.6501 10.9418L7.58334 12.0083V7.58333H12.0083L10.9418 8.6498C10.7141 8.87758 10.7141 9.24698 10.9418 9.47477C11.1696 9.70255 11.539 9.70255 11.7668 9.47477L13.8292 7.41227C14.057 7.18477 14.057 6.81523 13.829 6.58744Z" fill="#1F659D"/>
</svg>
