<svg width="20" height="20" viewBox="0 0 20 20" fill="none" xmlns="http://www.w3.org/2000/svg">
<path fill-rule="evenodd" clip-rule="evenodd" d="M18.3333 1.66667H8.33333V3.33333H18.3333V1.66667ZM8.33333 0C7.41286 0 6.66667 0.746192 6.66667 1.66667V3.33333C6.66667 4.25381 7.41286 5 8.33333 5H18.3333C19.2538 5 20 4.25381 20 3.33333V1.66667C20 0.746192 19.2538 0 18.3333 0H8.33333ZM15.8333 9.16667H5V10.8333H15.8333V9.16667ZM5 7.5C4.07953 7.5 3.33333 8.24619 3.33333 9.16667V10.8333C3.33333 11.7538 4.07953 12.5 5 12.5H15.8333C16.7538 12.5 17.5 11.7538 17.5 10.8333V9.16667C17.5 8.24619 16.7538 7.5 15.8333 7.5H5ZM1.66667 18.3333L1.66667 16.6667H11.6667V18.3333H1.66667ZM0 16.6667C0 15.7462 0.746192 15 1.66667 15H11.6667C12.5871 15 13.3333 15.7462 13.3333 16.6667V18.3333C13.3333 19.2538 12.5871 20 11.6667 20H1.66667C0.746192 20 0 19.2538 0 18.3333V16.6667Z" fill="#4B83B0"/>
</svg>
