<svg width="20" height="20" viewBox="0 0 20 20" fill="none" xmlns="http://www.w3.org/2000/svg">
<path fill-rule="evenodd" clip-rule="evenodd" d="M6.42899 2.85714C6.0345 2.85714 5.7147 2.53735 5.7147 2.14286V0.714287C5.7147 0.319798 6.0345 0 6.42899 0C6.82348 0 7.14328 0.319797 7.14328 0.714287V2.14286C7.14328 2.53735 6.82348 2.85714 6.42899 2.85714ZM6.42941 20C6.03492 20 5.71512 19.6802 5.71512 19.2857V17.8571C5.71512 17.4627 6.03492 17.1429 6.42941 17.1429C6.82389 17.1429 7.14369 17.4627 7.14369 17.8571V19.2857C7.14369 19.6802 6.82389 20 6.42941 20ZM9.28613 19.2857C9.28613 19.6802 9.60593 20 10.0004 20C10.3949 20 10.7147 19.6802 10.7147 19.2857V17.8571C10.7147 17.4627 10.3949 17.1429 10.0004 17.1429C9.60593 17.1429 9.28613 17.4627 9.28613 17.8571V19.2857ZM10.0004 2.85714C9.60593 2.85714 9.28613 2.53735 9.28613 2.14286V0.714287C9.28613 0.319797 9.60593 0 10.0004 0C10.3949 0 10.7147 0.319797 10.7147 0.714287V2.14286C10.7147 2.53735 10.3949 2.85714 10.0004 2.85714ZM12.8576 19.2857C12.8576 19.6802 13.1774 20 13.5718 20C13.9663 20 14.2861 19.6802 14.2861 19.2857V17.8571C14.2861 17.4627 13.9663 17.1429 13.5718 17.1429C13.1774 17.1429 12.8576 17.4627 12.8576 17.8571V19.2857ZM13.5718 2.85714C13.1774 2.85714 12.8576 2.53735 12.8576 2.14286V0.714287C12.8576 0.319797 13.1774 0 13.5718 0C13.9663 0 14.2861 0.319797 14.2861 0.714286V2.14286C14.2861 2.53735 13.9663 2.85714 13.5718 2.85714ZM14.2857 5.71429H5.71429V14.2857H14.2857V5.71429ZM5 4.28571C4.60551 4.28571 4.28571 4.60551 4.28571 5V15C4.28571 15.3945 4.60551 15.7143 5 15.7143H15C15.3945 15.7143 15.7143 15.3945 15.7143 15V5C15.7143 4.60551 15.3945 4.28571 15 4.28571H5ZM10.7143 9.28571H9.28571V10.7143H10.7143V9.28571ZM8.57143 7.85714C8.17694 7.85714 7.85714 8.17694 7.85714 8.57143V11.4286C7.85714 11.8231 8.17694 12.1429 8.57143 12.1429H11.4286C11.8231 12.1429 12.1429 11.8231 12.1429 11.4286V8.57143C12.1429 8.17694 11.8231 7.85714 11.4286 7.85714H8.57143ZM0.714285 5.71429C0.319796 5.71429 0 6.03408 0 6.42857C0 6.82306 0.319797 7.14286 0.714286 7.14286H2.14286C2.53735 7.14286 2.85714 6.82306 2.85714 6.42857C2.85714 6.03408 2.53735 5.71429 2.14286 5.71429H0.714285ZM17.1429 6.42857C17.1429 6.03408 17.4627 5.71429 17.8571 5.71429H19.2857C19.6802 5.71429 20 6.03408 20 6.42857C20 6.82306 19.6802 7.14286 19.2857 7.14286H17.8571C17.4627 7.14286 17.1429 6.82306 17.1429 6.42857ZM0.714285 9.28571C0.319796 9.28571 0 9.60551 0 10C0 10.3945 0.319797 10.7143 0.714286 10.7143H2.14286C2.53735 10.7143 2.85714 10.3945 2.85714 10C2.85714 9.60551 2.53735 9.28571 2.14286 9.28571H0.714285ZM17.1429 10C17.1429 9.60551 17.4627 9.28571 17.8571 9.28571H19.2857C19.6802 9.28571 20 9.60551 20 10C20 10.3945 19.6802 10.7143 19.2857 10.7143H17.8571C17.4627 10.7143 17.1429 10.3945 17.1429 10ZM0.714285 12.8571C0.319796 12.8571 0 13.1769 0 13.5714C0 13.9659 0.319797 14.2857 0.714286 14.2857H2.14286C2.53735 14.2857 2.85714 13.9659 2.85714 13.5714C2.85714 13.1769 2.53735 12.8571 2.14286 12.8571H0.714285ZM17.1429 13.5714C17.1429 13.1769 17.4627 12.8571 17.8571 12.8571H19.2857C19.6802 12.8571 20 13.1769 20 13.5714C20 13.9659 19.6802 14.2857 19.2857 14.2857H17.8571C17.4627 14.2857 17.1429 13.9659 17.1429 13.5714Z" fill="#4B83B0"/>
</svg>
