<svg width="16" height="16" viewBox="0 0 16 16" fill="none" xmlns="http://www.w3.org/2000/svg">
<path d="M7.1263 0.799988C10.6203 0.799988 13.4528 3.63246 13.4528 7.12648C13.4528 8.65653 12.9096 10.0597 12.0056 11.1538L15.0233 14.1714C15.2586 14.4067 15.2586 14.7882 15.0233 15.0235C14.788 15.2588 14.4065 15.2588 14.1712 15.0235L11.1536 12.0058C10.0595 12.9098 8.65635 13.453 7.1263 13.453C3.63227 13.453 0.799805 10.6205 0.799805 7.12648C0.799805 3.63246 3.63227 0.799988 7.1263 0.799988ZM7.1263 2.00503C4.2978 2.00503 2.00485 4.29798 2.00485 7.12648C2.00485 9.95498 4.2978 12.2479 7.1263 12.2479C9.9548 12.2479 12.2477 9.95498 12.2477 7.12648C12.2477 4.29798 9.9548 2.00503 7.1263 2.00503Z" fill="white"/>
</svg>
