<svg width="24" height="24" viewBox="0 0 24 24" fill="none" xmlns="http://www.w3.org/2000/svg">
<path fill-rule="evenodd" clip-rule="evenodd" d="M11.0889 4.80005C10.5869 4.80005 10.1687 5.18484 10.127 5.68509L10.1073 5.92175C10.0874 6.16111 9.9251 6.36363 9.70324 6.45567C9.48126 6.54776 9.2252 6.51841 9.04174 6.36317L8.8604 6.20973C8.47726 5.88553 7.90956 5.90914 7.55466 6.26404L6.26483 7.55388C5.90994 7.90877 5.88632 8.47644 6.21051 8.85958L6.36391 9.04087C6.51917 9.22436 6.54853 9.48045 6.45642 9.70246C6.36437 9.92434 6.16183 10.0866 5.92244 10.1066L5.68582 10.1263C5.18557 10.168 4.80078 10.5862 4.80078 11.0882V12.9119C4.80078 13.4139 5.18557 13.8321 5.68582 13.8738L5.9225 13.8935C6.16185 13.9135 6.36436 14.0757 6.4564 14.2976C6.54849 14.5196 6.51913 14.7756 6.3639 14.9591L6.2104 15.1405C5.88615 15.5237 5.90977 16.0914 6.26472 16.4464L7.55439 17.7361C7.90932 18.091 8.47708 18.1146 8.86026 17.7904L9.04162 17.6369C9.2251 17.4817 9.48119 17.4523 9.7032 17.5444C9.92508 17.6365 10.0874 17.839 10.1073 18.0784L10.127 18.315C10.1687 18.8153 10.5869 19.2 11.0889 19.2H12.9127C13.4147 19.2 13.8328 18.8153 13.8745 18.315L13.8943 18.0784C13.9142 17.839 14.0765 17.6365 14.2984 17.5444C14.5204 17.4523 14.7764 17.4817 14.9599 17.6369L15.1413 17.7904C15.5245 18.1147 16.0923 18.091 16.4473 17.7361L17.7369 16.4465C18.0918 16.0915 18.1155 15.5237 17.7912 15.1405L17.6377 14.9591C17.4824 14.7756 17.4531 14.5196 17.5452 14.2976C17.6372 14.0757 17.8397 13.9135 18.0791 13.8935L18.3157 13.8738C18.816 13.8321 19.2008 13.4139 19.2008 12.9119V11.0882C19.2008 10.5862 18.816 10.168 18.3157 10.1263L18.0791 10.1066C17.8397 10.0866 17.6372 9.92434 17.5451 9.70246C17.453 9.48045 17.4824 9.22436 17.6376 9.04088L17.7911 8.85955C18.1153 8.47639 18.0917 7.90867 17.7368 7.55375L16.447 6.26401C16.0921 5.90908 15.5244 5.88547 15.1412 6.20969L14.9598 6.36317C14.7763 6.5184 14.5203 6.54776 14.2983 6.45567C14.0765 6.36363 13.9142 6.16112 13.8943 5.92176L13.8745 5.68509C13.8328 5.18484 13.4147 4.80005 12.9127 4.80005H11.0889ZM9.86288 16.2988C9.55553 16.1457 9.17974 16.1686 8.9251 16.3989C8.62785 16.6679 8.17192 16.6565 7.88847 16.373L7.62769 16.1123C7.34423 15.8288 7.33284 15.3729 7.60179 15.0756C7.83218 14.821 7.85506 14.4452 7.70192 14.1378C7.60424 13.9417 7.51957 13.7381 7.44906 13.5279C7.33986 13.2024 7.05806 12.9529 6.71519 12.9358C6.31499 12.9158 6.00078 12.5854 6.00078 12.1847V11.8154C6.00078 11.4146 6.31499 11.0843 6.71519 11.0643C7.05806 11.0472 7.33986 10.7977 7.44906 10.4722C7.51959 10.262 7.60428 10.0582 7.702 9.86215C7.85515 9.5548 7.83227 9.179 7.60188 8.92437C7.33294 8.62712 7.34433 8.17119 7.62778 7.88774L7.88856 7.62696C8.17203 7.3435 8.62797 7.33211 8.92523 7.60106C9.17987 7.83145 9.55567 7.85433 9.86303 7.70119C10.0591 7.60351 10.2628 7.51884 10.4729 7.44832C10.7984 7.33912 11.0479 7.05732 11.0651 6.71446C11.0851 6.31426 11.4154 6.00005 11.8161 6.00005H12.1855C12.5862 6.00005 12.9165 6.31426 12.9365 6.71446C12.9536 7.05732 13.2032 7.33912 13.5286 7.44832C13.7388 7.51884 13.9425 7.60351 14.1385 7.7012C14.4459 7.85434 14.8217 7.83145 15.0763 7.60107C15.3736 7.33213 15.8295 7.34352 16.113 7.62697L16.3738 7.88778C16.6572 8.17122 16.6686 8.62714 16.3997 8.92438C16.1693 9.17901 16.1464 9.55479 16.2996 9.86213C16.3973 10.0582 16.482 10.262 16.5525 10.4722C16.6617 10.7977 16.9435 11.0472 17.2864 11.0643C17.6866 11.0843 18.0008 11.4146 18.0008 11.8154V12.1847C18.0008 12.5854 17.6866 12.9158 17.2864 12.9358C16.9435 12.9529 16.6617 13.2024 16.5525 13.5279C16.482 13.7381 16.3973 13.9418 16.2996 14.1378C16.1465 14.4452 16.1694 14.821 16.3998 15.0756C16.6687 15.3728 16.6573 15.8288 16.3739 16.1122L16.113 16.373C15.8296 16.6565 15.3737 16.6679 15.0765 16.3989C14.8218 16.1686 14.446 16.1457 14.1387 16.2988C13.9426 16.3965 13.7389 16.4812 13.5286 16.5518C13.2032 16.661 12.9536 16.9428 12.9365 17.2856C12.9165 17.6858 12.5862 18 12.1855 18H11.8161C11.4154 18 11.0851 17.6858 11.0651 17.2856C11.0479 16.9428 10.7984 16.661 10.4729 16.5518C10.2627 16.4812 10.059 16.3965 9.86288 16.2988ZM15.0008 12C15.0008 13.6569 13.6576 15 12.0008 15C10.3439 15 9.00078 13.6569 9.00078 12C9.00078 10.3432 10.3439 9.00005 12.0008 9.00005C13.6576 9.00005 15.0008 10.3432 15.0008 12ZM13.8008 12C13.8008 12.9942 12.9949 13.8 12.0008 13.8C11.0067 13.8 10.2008 12.9942 10.2008 12C10.2008 11.0059 11.0067 10.2 12.0008 10.2C12.9949 10.2 13.8008 11.0059 13.8008 12Z" fill="white"/>
</svg>
