<svg width="16" height="16" viewBox="0 0 16 16" fill="none" xmlns="http://www.w3.org/2000/svg">
<path d="M9.10342 0.799999C9.87819 0.799999 10.566 1.29577 10.811 2.03079L11.2006 3.2H14.6008C14.9322 3.2 15.2008 3.46863 15.2008 3.8C15.2008 4.13137 14.9322 4.4 14.6008 4.4H13.8808L12.9629 13.5791C12.8709 14.4993 12.0966 15.2 11.1718 15.2H4.82976C3.90501 15.2 3.13071 14.4993 3.03869 13.5791L2.12078 4.4H1.40078C1.06941 4.4 0.800781 4.13137 0.800781 3.8C0.800781 3.46863 1.06941 3.2 1.40078 3.2H4.80038L5.19052 2.03079C5.43552 1.29577 6.12337 0.799999 6.89815 0.799999H9.10342ZM12.6742 4.4H3.32678L4.23274 13.4597C4.26105 13.7428 4.48315 13.9636 4.75959 13.9959L4.82976 14H11.1718C11.4563 14 11.6981 13.801 11.7578 13.5291L11.7688 13.4597L12.6742 4.4ZM8.00078 5.6C8.33215 5.6 8.60078 5.86863 8.60078 6.2V12.2C8.60078 12.5314 8.33215 12.8 8.00078 12.8C7.66941 12.8 7.40078 12.5314 7.40078 12.2V6.2C7.40078 5.86863 7.66941 5.6 8.00078 5.6ZM10.4008 5.6C10.7322 5.6 11.0008 5.86863 11.0008 6.2V12.2C11.0008 12.5314 10.7322 12.8 10.4008 12.8C10.0694 12.8 9.80078 12.5314 9.80078 12.2V6.2C9.80078 5.86863 10.0694 5.6 10.4008 5.6ZM5.60078 5.6C5.93215 5.6 6.20078 5.86863 6.20078 6.2V12.2C6.20078 12.5314 5.93215 12.8 5.60078 12.8C5.26941 12.8 5.00078 12.5314 5.00078 12.2V6.2C5.00078 5.86863 5.26941 5.6 5.60078 5.6ZM9.10342 2H6.89815C6.66337 2 6.45253 2.13658 6.35478 2.34548L6.32894 2.41026L6.06518 3.2H9.93578L9.67262 2.41026C9.59838 2.18753 9.40214 2.03071 9.17304 2.00403L9.10342 2Z" fill="#E42526"/>
</svg>
