<svg width="15" height="15" viewBox="0 0 15 15" fill="none" xmlns="http://www.w3.org/2000/svg">
<path fill-rule="evenodd" clip-rule="evenodd" d="M6.965 0.0409452C7.11164 -0.0149166 7.27392 -0.0135755 7.41962 0.0447021L13.6696 2.5447C13.9069 2.63962 14.0625 2.86943 14.0625 3.125V11.25C14.0625 11.4867 13.9287 11.7031 13.717 11.809L7.46701 14.934C7.29483 15.0201 7.09259 15.022 6.91879 14.9393L0.356292 11.8143C0.138641 11.7106 0 11.4911 0 11.25V3.125C0 2.86566 0.160156 2.63327 0.402503 2.54095L6.965 0.0409452ZM1.25 4.03191V10.8554L6.5625 13.3851V6.05572L1.25 4.03191ZM7.8125 6.04815V13.3637L12.8125 10.8637V4.04815L7.8125 6.04815ZM11.7546 3.125L7.18196 4.95407L2.38064 3.125L7.18196 1.29593L11.7546 3.125Z" fill="#1F659D"/>
</svg>
